/* XPM */
static char *_7bfcb119b27452192d145a718110cb9[] = {
/* columns rows colors chars-per-pixel */
"64 64 256 2 ",
"   c #0C0C0C",
".  c #040404",
"X  c #151515",
"o  c #1C1C1B",
"O  c #171818",
"+  c #21211F",
"@  c #1C1D28",
"#  c #0D0F2C",
"$  c #1E2132",
"%  c #232323",
"&  c #2C2C2C",
"*  c #292826",
"=  c #31312E",
"-  c #333333",
";  c #383733",
":  c #393837",
">  c #35363B",
",  c #3B3B3B",
"<  c #38373B",
"1  c #2A2C35",
"2  c #403F3A",
"3  c #43423D",
"4  c #5A563F",
"5  c #393B48",
"6  c #32354C",
"7  c #3F4041",
"8  c #3E4255",
"9  c #434343",
"0  c #4C4C4C",
"q  c #46474B",
"w  c #52514D",
"e  c #5F5D4C",
"r  c #464957",
"t  c #4F515D",
"y  c #535353",
"u  c #5C5C5C",
"i  c #57575A",
"p  c #504E4C",
"a  c #625F50",
"s  c #62615C",
"d  c #696758",
"f  c #726D50",
"g  c #484C67",
"h  c #51546A",
"j  c #4E5271",
"k  c #535876",
"l  c #555A7B",
"z  c #545976",
"x  c #4E5167",
"c  c #646464",
"v  c #6B6B6B",
"b  c #676768",
"n  c #716E67",
"m  c #73726D",
"M  c #797763",
"N  c #67697B",
"B  c #6E707F",
"V  c #747474",
"C  c #74757C",
"Z  c #7A7A7A",
"A  c #7C7B76",
"S  c #817E67",
"D  c #807E79",
"F  c #857A42",
"G  c #B7AC3A",
"H  c #B2A93E",
"J  c #C8BB26",
"K  c #C5B738",
"L  c #D5BF2A",
"P  c #DDCF1D",
"I  c #E4D41C",
"U  c #FDE81D",
"Y  c #FFF41B",
"T  c #DAC727",
"R  c #D5C53B",
"E  c #CEC123",
"W  c #E4CB26",
"Q  c #ECD228",
"!  c #F5D827",
"~  c #F9DF3A",
"^  c #FEE424",
"/  c #FFEC23",
"(  c #FFEC2A",
")  c #FDE328",
"_  c #FFFA24",
"`  c #FFF32D",
"'  c #FFFB2B",
"]  c #FFEE3D",
"[  c #FFE337",
"{  c #FFF534",
"}  c #FFF931",
"|  c #FFF23B",
" . c #958C53",
".. c #A59E5E",
"X. c #A79748",
"o. c #A9A24A",
"O. c #B6A94A",
"+. c #BFB24B",
"@. c #ABA15B",
"#. c #BBAC54",
"$. c #B5A956",
"%. c #8B896B",
"&. c #928E6A",
"*. c #9A9767",
"=. c #84837D",
"-. c #8C897B",
";. c #908C72",
":. c #9C9976",
">. c #A49D66",
",. c #A09E74",
"<. c #A29E7B",
"1. c #ABA579",
"2. c #B4AF69",
"3. c #CBB94D",
"4. c #C3B973",
"5. c #D5C556",
"6. c #D1C24B",
"7. c #E3C947",
"8. c #FFDE46",
"9. c #FEDE49",
"0. c #F5D746",
"q. c #EAD254",
"w. c #FFE345",
"e. c #FFEA42",
"r. c #FFE24C",
"t. c #FFF546",
"y. c #FFE453",
"u. c #FFE55C",
"i. c #F6E757",
"p. c #FEF454",
"a. c #FFFB5C",
"s. c #EDE754",
"d. c #D8CF64",
"f. c #E8D664",
"g. c #E4D778",
"h. c #FFE663",
"j. c #FFE76B",
"k. c #FFE86D",
"l. c #FFE864",
"z. c #FFFD63",
"x. c #FFFF6A",
"c. c #FFE974",
"v. c #FFEA7D",
"b. c #FFE677",
"n. c #FFF575",
"m. c #5E6388",
"M. c #666987",
"N. c #7C7D84",
"B. c #7A7C8C",
"V. c #767987",
"C. c #686D93",
"Z. c #6D7195",
"A. c #7A7D95",
"S. c #777A9A",
"D. c #6D7089",
"F. c #7579A4",
"G. c #575B82",
"H. c #7E819D",
"J. c #7E8091",
"K. c #7E82A6",
"L. c #838384",
"P. c #8C8B8C",
"I. c #868688",
"U. c #9C998B",
"Y. c #989587",
"T. c #868796",
"R. c #949394",
"E. c #9B9A9A",
"W. c #999898",
"Q. c #908F87",
"!. c #A6A287",
"~. c #BCB588",
"^. c #A5A39B",
"/. c #B8B39A",
"(. c #B1AD99",
"). c #8589AC",
"_. c #8689A6",
"`. c #8D91AE",
"'. c #9899AC",
"]. c #8287B3",
"[. c #8E93B6",
"{. c #9699BA",
"}. c #A7A7A6",
"|. c #B6B4A6",
" X c #B8B8B6",
".X c #A2A3BC",
"XX c #A19C84",
"oX c #C2BB95",
"OX c #C1BDAB",
"+X c #D3C998",
"@X c #EBDB88",
"#X c #FFE783",
"$X c #FFEB83",
"%X c #FFED8C",
"&X c #FFF68A",
"*X c #FFEE93",
"=X c #FFEF9B",
"-X c #F4E59B",
";X c #FFF094",
":X c #FFF19D",
">X c #FFFF98",
",X c #E9E29B",
"<X c #CDC7A9",
"1X c #CAC7B7",
"2X c #D3CEB7",
"3X c #D8D3BB",
"4X c #DBD2A7",
"5X c #E8DEB0",
"6X c #EDE2A5",
"7X c #FCEDA3",
"8X c #F6E8A7",
"9X c #FFF1A3",
"0X c #FFF2AB",
"qX c #FFFEA8",
"wX c #E7E3BC",
"eX c #FFF3B3",
"rX c #FFF4BB",
"tX c #FEFEB7",
"yX c #F3EABE",
"uX c #9C9FC5",
"iX c #AAACCA",
"pX c #B2B4C4",
"aX c #B5B9DA",
"sX c #ADB1CB",
"dX c #9BA0C5",
"fX c #CCCCCB",
"gX c #C8C8C4",
"hX c #D2D2CD",
"jX c #D9D5C7",
"kX c #DAD9D6",
"lX c #D1CFCB",
"zX c #E2DEC7",
"xX c #ECE7C8",
"cX c #F2EBC9",
"vX c #FFF6C4",
"bX c #FFF9C6",
"nX c #FEF6CC",
"mX c #FFF9CC",
"MX c #E8E5D6",
"NX c #FEF6D3",
"BX c #FFF9D3",
"VX c #FFFADC",
"CX c #F8F3DC",
"ZX c #E4E4E3",
"AX c #EBEBEB",
"SX c #ECEBE4",
"DX c #F1EFE6",
"FX c #F6F3E4",
"GX c #FFFBE4",
"HX c #FFFCEC",
"JX c #F8F5E5",
"KX c #F4F3F3",
"LX c #FFFEF4",
"PX c #FFFFFE",
"IX c #F8F7F0",
"UX c None",
/* pixels */
"UXUXUXUXUXUXUXUXUXUXUXUXUXUXUXUXUXUXUXUXUXUXUXUXUXUXUXUX- - < < : < - - UXUXUXUXUXUXUXUXUXUXUXUXUXUXUXUXUXUXUXUXUXUXUXUXUXUXUXUX",
"UXUXUXUXUXUXUXUXUXUXUXUXUXUXUXUXUXUXUXUXUXUXUX= 2 y v C B.A.H.T.H.S.A.B.B c y , = UXUXUXUXUXUXUXUXUXUXUXUXUXUXUXUXUXUXUXUXUXUXUX",
"UXUXUXUXUXUXUXUXUXUXUXUXUXUXUXUXUXUXUXUXo 9 v T.`.[.`.W.Y.<.:.,.,.,.<.Y.W._.)._.B.c 2 1 UXUXUXUXUXUXUXUXUXUXUXUXUXUXUXUXUXUXUXUX",
"UXUXUXUXUXUXUXUXUXUXUXUXUXUXUXUXUXUXo 3 P.{.[.W.,.$.G T Q ! ^ ^ / ^ ! Q W K O.>.U.).).V.w = UXUXUXUXUXUXUXUXUXUXUXUXUXUXUXUXUXUX",
"UXUXUXUXUXUXUXUXUXUXUXUXUXUXUXUX% , T.dX'.:.G T U ` { | ] e.w.w.w.w.e.e.] { } / I K >.R.].J.w & UXUXUXUXUXUXUXUXUXUXUXUXUXUXUXUX",
"UXUXUXUXUXUXUXUXUXUXUXUXUXUXUX: I.sX'...J U ' ] w.r.r.r.9.y.y.y.y.y.y.y.r.r.w.8.e.{ / P o.P.].V.3 UXUXUXUXUXUXUXUXUXUXUXUXUXUXUX",
"UXUXUXUXUXUXUXUXUXUXUXUXUX- s pXiX,.R { | w.r.r.r.y.u.y.u.u.u.h.u.u.u.u.u.y.y.y.r.r.w.| _ I o.T.).u = UXUXUXUXUXUXUXUXUXUXUXUXUX",
"UXUXUXUXUXUXUXUXUXUXUXUX+ R.aX^.3.t.a.u.y.u.y.u.u.h.j.j.k.c.c.k.k.c.k.k.j.h.j.u.u.y.r.r.r.e._ T &.].V.; UXUXUXUXUXUXUXUXUXUXUXUX",
"UXUXUXUXUXUXUXUXUXUXUX= }.aX1.s.x.c.c.k.j.j.j.j.k.c.c.c.v.v.v.$Xv.$Xv.v.v.c.c.k.j.h.u.y.y.r.w.{ Y o.F.T.3 UXUXUXUXUXUXUXUXUXUXUX",
"UXUXUXUXUXUXUXUXUXUX- pXiX2.a.n.#X$X$X$Xv.v.v.v.v.$X$X%X%X;X%X%X*X%X%X%X%X$Xv.v.c.c.k.l.u.y.r.9.] _ J J._.3 UXUXUXUXUXUXUXUXUXUX",
"UXUXUXUXUXUXUXUXUX= pX.X3.z.v.#X%X%X*X*X*X%X%X%X%X;X;X:X:X:X:X9X:X:X9X:X:X;X%X&X$X$Xv.c.k.h.u.y.9.8.' P L.K.3 UXUXUXUXUXUXUXUXUX",
"UXUXUXUXUXUXUXUX= pX.X6.x.$X#X*X*X=X=X:X:X7X9X9X9X9X9X7X-X6X6X6X6X6X6X8X9X9XqX:X:X%X#Xv.c.k.j.u.y.9.9.' I N._.3 UXUXUXUXUXUXUXUX",
"UXUXUXUXUXUXUX+ }.sX3.z.$X%X%X;X:X9X9X0XeXeXeXeX0X6X4X+XoX<.;.S M M M %.;.!.~.+X:XqX>X$X$X$Xc.j.h.y.r.9.} I T.S.; UXUXUXUXUXUXUX",
"UXUXUXUXUXUX, I.aX2.z.$X%X%X=X:X:X0X0XrXeXrXrX5X<X/.;.d 3 - & & & = - > 3 9 p a M <.,X:X%X%X$Xc.k.h.u.r.9.' J A.B & UXUXUXUXUXUX",
"UXUXUXUXUXb u aX1.a.$X%X*X;X:X7X0XeXrXrXvXyX<X(.Q.w * o % - , < > - - = - ; , 5 , r oXtX:X;X%X#Xv.k.h.u.r.9._ G F.u UXUXUXUXUXUX",
"UXUXUXUXUX; sX^.s.n.#X%X;X7X7X0XeXrXvXbXwX/.Y.c * X * 7 q 0 s n m M d y 2 * * - 5 c <XtX0X:X=X$Xv.c.j.u.y.9.] Y *.F.3 UXUXUXUXUX",
"UXUXUXUX, N.iX5.x.$X$X*X:X9X0XeXrXvXvXwX(.=.y o o < 0 u =./.2XzXzXzX3X|.=.w = + , v <XmXeX0X9X;X%X$Xb.j.u.y.r.| I I.N = UXUXUXUX",
"UXUXUXUX; sX1.p.v.%X;X:X7X0XeXrXvXvXwX/.D 0 O % , y v  XFXLXHXHXHXGXHXMX^.n 3 O - v <XBXvXeX0X7X;X%X$Xc.j.u.r.9._ +.F.p UXUXUXUX",
"UXUXUX* I.'.R a.b.$X*X:X0X0XrXrXbXcXoX=.y o % 2 y A hXPXLXLXLXLXLXLXLXJXOXV 9 o 1 v 2XVXvXrXeX0X:X;X$Xv.k.l.y.r.] U -.M.- UXUXUX",
"UXUXUX; dX..{ h.c.#X;X9X0XeXrXnXnX2XQ.s * + < 0 v hXPXLXLXLXPXLXLXLXLXHXgX=.y o o c 1XHXnXnXvXeX0X:X*X%Xv.k.u.y.8.} K C.0 UXUXUX",
"UXUX- L.'.L t.u.k.#X;X9X0XrXbXmXwX(.m , o - 9 i |.PXPXLXPXLXPXPXPXLXPXLXkX^.I.* . 0 1XPXVXnXvXrXeX9X=X%X$Xc.l.u.r.e.) I.N - UXUX",
"UXUX; {.:./ r.y.k.$X;X9XeXvXbXnX2XQ.i * % 2 q A AXPXPXPXPXPXPXPXPXPXPXPXDXlX1X}.}.1XDXHXVXBXnXvXrX0X7X;X#Xv.k.u.y.9._ O.C., UXUX",
"UXUXv [.G } 9.u.j.v.%X9XeXvXmXcX|.m 9 o = 5 y ^.PXPXLXPXPXPXPXPXPXPXPXPXPXKXSXIXPXPXLXGXGXVXBXnXvXeX0X:X*X#Xc.j.y.r.| W B.i UXUX",
"UX= T.R.W ] r.u.k.v.*X9XeXvXBXzX^.c ; + , 9 u fXPXPXPXPXPXPXPXPXPXPXPXPXPXPXPXPXPXLXLXHXGXGXVXNXvXrX0X9X;X$Xv.k.u.r.e./ ;.l ; UX",
"UX, `.,.U w.r.u.k.v.*X7XeXvXnX3XY.i & % 5 3 m kXPXPXPXPXPXPXPXPXPXPXPXPXPXPXPXPXPXLXLXLXHXGXVXNXnXvXeX0X=X%X$Xc.h.y.r.` #.M., UX",
"UXy [.O.` r.y.h.c.$X*X9XeXbXnX2X-.p * * 7 9 Z ZXPXPXPXPXPXPXPXPXPXPXPXPXPXPXPXPXPXPXLXLXHXHXGXVXmXvXrX0X:X*X$Xc.h.u.9.{ K D.q UX",
"UXb `.K { r.y.h.v.#X;X9XeXbXcX1XD 0 % & 9 9 N.AXPXPXPXPXPXPXPXPXPXPXPXPXPXPXPXPXPXLXPXLXLXHXGXVXBXnXrXeX9X=X$Xv.j.u.r.] Q L.t UX",
"= C `.T ] 9.u.j.v.$X=X9XeXbXnXOXD q % = 7 9 Z ZXPXPXPXPXPXPXPXPXPXPXPXPXPXPXPXPXPXPXPXLXLXHXGXVXBXnXvXeX0X=X%Xv.j.u.y.e.) ;.h - ",
"- B.U.Q e.r.u.j.v.$X=X9XrXbXnX<XD q % = 3 9 V ZXPXPXPXPXPXPXPXPXPXPXPXPXPXPXPXPXPXPXPXLXLXHXHXGXBXnXvXrX0X:X*Xv.k.u.y.w.( *.z - ",
"; A.<.! e.y.h.k.v.%X=X0XeXbXnX1X=.p % & 9 , b kXPXPXPXPXPXPXPXPXPXPXPXPXPXPXPXPXPXPXLXPXLXLXGXVXVXNXvXrX0X:X%X$Xb.h.y.r.` ..k ; ",
": H.<.^ w.y.u.k.$X*X:X0XrXbXNX3X-.y & % 9 , u gXPXPXPXPXPXPXPXPXPXPXPXPXPXPXPXPXPXPXPXPXLXLXHXGXVXBXvXrX0X:X*X$Xc.h.y.r.( $.k , ",
": H.,.^ w.y.h.k.v.%X:X0XrXvXBXzXU.c - + , , p E.PXPXPXPXPXPXPXPXPXPXPXPXPXPXPXPXPXPXPXPXLXLXHXGXVXBXnXrXeX7X*X$Xc.h.y.9.{ #.k , ",
", H.,.^ w.y.h.k.v.*X:X0XrXvXBXxX|.v , o ; 9 9 V AXPXPXPXPXPXPXPXPXPXPXPXPXPXKXPXPXPXPXPXLXLXHXGXVXBXnXrXeX:X*X$Xc.h.y.r.` $.l < ",
": S.,.^ w.y.u.c.$X%X:X0XrXbXBXNX1X=.w % * 9 , i  XPXPXPXPXPXPXPXPXPXPXPXKXkXfXfXfXAXPXPXLXLXHXGXVXNXvXrXeX7X%X$Xc.h.y.w.` $.k : ",
"- A.<.! w.y.u.k.v.%X=X0XeXvXBXVXzX^.c : o < 7 q m ZXPXPXPXPXPXPXPXPXPXPXZX}.R.9 @ v hXPXPXLXHXGXVXBXnXrX0X9X*X$Xc.h.y.r.( @.j , ",
"- B.Y.! e.r.u.j.v.%X:X0XeXvXmXVXCX1X=.0 + % 9 , y R.PXPXPXPXPXPXPXPXPXPXhXI.u o O u gXPXLXLXHXGXVXNXvXeX0X:X%Xv.k.h.y.w.` *.j ; ",
"= B R.W ] r.u.j.v.$X:X9XeXrXnXBXVXMX}.m , X = 9 5 u ^.PXPXPXPXPXPXPXPXPXgXV q o & b lXPXLXLXHXGXVXNXvXrX0X=X%Xv.k.h.r.w.) %.x - ",
"UXc _.K { r.u.h.b.$X*X7XeXrXvXBXVXCXjXE.v - X - 3 9 i W.AXPXPXPXPXPXPXKX XN 9 o - b fXPXLXLXHXGXVXBXvXeX9X=X%Xv.j.u.r.] ! D t UX",
"UXy ).+.` r.y.j.c.$X*X:X0XrXvXnXVXGXJXjXE.v = X & , 9 y Z  XZXKXKXKXAXhXW.s - o ; b fXPXLXLXHXGXVXBXvXeX9X=X#Xc.j.y.r.{ R M.q UX",
"UX2 K.>./ w.r.u.j.v.%X;X9XeXrXnXBXVXGXCXlX^.V , X + : 5 q y V P.R.R.P.V u 5 = = 5 c lXPXLXHXGXGXVXnXvXeX9X;X#Xc.h.y.8.} +.l , UX",
"UX- V.R.Q ] r.y.j.c.#X;X9X0XrXvXmXVXGXHXJXkX XQ.s * X % = < 2 7 5 2 < - : < : , , p 1XPXHXHXHXGXBXNXvXeX9X*Xv.c.u.y.w.( *.j ; UX",
"UXUXc ).K ` r.y.h.c.$X%X=X0XeXvXnXNXVXGXHXHXSXhX XR.u < * % * * & - - - - : 5 q s I.ZXPXHXHXGXVXBXnXvXeX7X*X$Xk.u.9.e.! Z r UXUX",
"UXUX9 ).../ w.y.u.k.v.$X;X9X0XeXvXnXBXVXGXHXHXJXkXlXgX XE.L.V V V m v n Z I.^. XZXPXPXHXHXHXGXVXNXnXvXeX9X;X$Xj.u.r.} +.G.9 UXUX",
"UXUX= V.R.W | 9.y.h.c.v.%X=X9XeXrXvXnXBXGXGXMXhXgX|.I.m b c b V P.}.kXIXPXPXPXPXPXLXHXHXGXVXVXNXnXnXrXeX9X;X$Xk.u.r.( &.z X UXUX",
"UXUXUXw ].o._ 9.r.u.j.v.#X;X:X0XeXrXbXmXcX2X|.Q.w * O o + o X       = c }.IXPXPXHXHXHXGXGXVXBXmXbXvXrX0X9X;X#Xc.h.| R M., UXUXUX",
"UXUXUX= B.P.I ] r.u.l.k.v.$X;X:XeXeXvXcX<XU.s % y E.E.R.R.L.N.V u q *   . % V kXPXLXGXGXVXBXBXnXvXrXeX0X7X;X%Xc.l.| :.g - UXUXUX",
"UXUXUXUXw ].O._ w.r.u.j.c.$X%X;X9X0XeX4XXXs O c PXKXP.V m v v m V V Z V b q o % V DXPXVXBXBXnXvXrXeX0X9X:X*X#Xb.a.5.Z.* UXUXUXUX",
"UXUXUXUX& V.T.T { 8.y.u.j.c.$X%X;X9X7XoX%.7 = E.gXJ.i 0 y y y 0 q 0 0 i b V L.v < , ^.GXVXbXvXrXrXeX9X9X;X*X#Xn.p.!.g 3 UXUXUXUX",
"UXUXUXUXUX3 ).&.U e.r.y.h.j.c.$X%X:X-X~.M 2 X C E.q 1 = & & & & * * * * & > 7 u J.v 7 v xXBXrXrX0X0X:X=X;X$X#Xa.4.Z.; UXUXUXUXUX",
"UXUXUXUXUXUXs ].H _ 8.9.y.j.k.c.$X%X@X1.d =   |.fX7 @ * % o O O O O o O O O O O + 7 b 7 0 wXbX8X0X7X:X%X$Xv.x.f._.5 v UXUXUXUXUX",
"UXUXUXUXUXUX& V.K.J ` 8.r.u.h.j.c.v.@X,.d % o gXfXy X + + + o o o o O O O O X X       & $ y tXqX7X=X%X%X#Xn.s.E.h p UXUXUXUXUXUX",
"UXUXUXUXUXUXUX; H.T.P ' 8.r.y.h.j.c.g.>.d + @  X Xw X X O o O X O O O O o O O O O O X   % @ XXtX=X*X%X#Xn.a.!.M.o UXUXUXUXUXUXUX",
"UXUXUXUXUXUXUXUX3 _.L.P } 9.r.y.u.k.f.@.d % O ^.E.y * % % @ + @ o o o o o o o o o o O O + $ ~.qX%X%X$Xn.p.1.Z.% UXUXUXUXUXUXUXUX",
"UXUXUXUXUXUXUXUXUX3 K.N.P ' r.r.y.u.f.@.d >   Z R.9 % % % % % % % + % % + o o o o + * + # S qX;X$X#Xn.p.!.Z.+ UXUXUXUXUXUXUXUXUX",
"UXUXUXUXUXUXUXUXUXUX3 _.I.E _ e.9.y.0.#.f 9 O < v 7 % + + o o + % o o o + % + % * & $ 6 *.>X&X#X#Xx.s.!.D.+ UXUXUXUXUXUXUXUXUXUX",
"UXUXUXUXUXUXUXUXUXUXUX3 S.S.H Y e.9.9.6. .e < < q = + + + + + % o % % % + % * $ $ 6 M g.&Xv.v.n.z.d.E.m.* UXUXUXUXUXUXUXUXUXUXUX",
"UXUXUXUXUXUXUXUXUXUXUXUX; B F.*.I ' e.0.+. .a 9 5 > : ; - * * % * % + % 1 1 6 8 S d.z.z.h.j.a.p.4._.x & UXUXUXUXUXUXUXUXUXUXUXUX",
"UXUXUXUXUXUXUXUXUXUXUXUXUX= u S.L.O.U ' ~ 6.O.F e : 5 5 r r 8 8 8 6 8 8 t n *.d.p.p.9.r.t.t.5.E.S.5 3 UXUXUXUXUXUXUXUXUXUXUXUXUX",
"UXUXUXUXUXUXUXUXUXUXUXUXUXUXUX3 M.S.-.K ! ` ~ 6.+.X.F f e e a d n S  .2.5.y.w.e.e.] } ( R :.S.g & UXUXUXUXUXUXUXUXUXUXUXUXUXUXUX",
"UXUXUXUXUXUXUXUXUXUXUXUXUXUXUXUX= 0 M.Z.;.#.T / ^ [ 0.7.7.7.6.7.7.0.e.e.e.| { { ( Q +.;.M.g * 7 UXUXUXUXUXUXUXUXUXUXUXUXUXUXUXUX",
"UXUXUXUXUXUXUXUXUXUXUXUXUXUXUXUXUXUX- 0 N C.B.:.#.R Q ) ` ` } { ` ' ` ( ( ! R #.*.C m.x * * UXUXUXUXUXUXUXUXUXUXUXUXUXUXUXUXUXUX",
"UXUXUXUXUXUXUXUXUXUXUXUXUXUXUXUXUXUXUXUX= 2 u l m.D.N.;.*.@.O.#.#.$.@.*.%.Z M.l j t ; & UXUXUXUXUXUXUXUXUXUXUXUXUXUXUXUXUXUXUXUX",
"UXUXUXUXUXUXUXUXUXUXUXUXUXUXUXUXUXUXUXUXUXUXUX- 2 0 t h j k k l z z z j g t q , - UXUXUXUXUXUXUXUXUXUXUXUXUXUXUXUXUXUXUXUXUXUXUX",
"UXUXUXUXUXUXUXUXUXUXUXUXUXUXUXUXUXUXUXUXUXUXUXUXUXUXUXUX: : : , , : : : UXUXUXUXUXUXUXUXUXUXUXUXUXUXUXUXUXUXUXUXUXUXUXUXUXUXUXUX"
};
