/* XPM */
static char *_516121116739[] = {
/* columns rows colors chars-per-pixel */
"16 16 183 2 ",
"   c black",
".  c #000007",
"X  c #00000B",
"o  c #00000D",
"O  c #100F0D",
"+  c #000013",
"@  c #000018",
"#  c #111119",
"$  c #13141C",
"%  c #1E1D1B",
"&  c #24251A",
"*  c #1A1A20",
"=  c #1A1B21",
"-  c #0C133E",
";  c #222223",
":  c #292A29",
">  c #252836",
",  c #252639",
"<  c #323334",
"1  c #3A3C41",
"2  c #2C3058",
"3  c #2D325B",
"4  c #323560",
"5  c #323565",
"6  c #3B3E63",
"7  c #3D4043",
"8  c #3F4259",
"9  c #464745",
"0  c #43454F",
"q  c #4A4A49",
"w  c #4A4A4C",
"e  c #4D4D4C",
"r  c #4F4E4D",
"t  c #4F5149",
"y  c #454757",
"u  c #474856",
"i  c #404359",
"p  c #4B4C5E",
"a  c #524D51",
"s  c #4C5057",
"d  c #505156",
"f  c #565655",
"g  c #57585A",
"h  c #595858",
"j  c #777949",
"k  c #77784D",
"l  c #7A7C54",
"z  c #7D7D5A",
"x  c #7E7E5A",
"c  c #454661",
"v  c #494D6A",
"b  c #4C506E",
"n  c #4E516E",
"m  c #5D5E67",
"M  c #575A7C",
"N  c #5E6063",
"B  c #5D6072",
"V  c #636466",
"C  c #686867",
"Z  c #6B6D6F",
"A  c #867D42",
"S  c #8D8138",
"D  c #FFFF3D",
"F  c #938A41",
"G  c #93904B",
"H  c #93904C",
"J  c #979651",
"K  c #99965C",
"L  c #9A975D",
"P  c #9A985F",
"I  c #A09753",
"U  c #A1A04E",
"Y  c #BBB74C",
"T  c #A6A954",
"R  c #ACA953",
"E  c #AFAD5C",
"W  c #B5AA5C",
"Q  c #B4B853",
"!  c #B0B05C",
"~  c #BEB55B",
"^  c #818160",
"/  c #A3A667",
"(  c #AFAE74",
")  c #C8BB74",
"_  c #D5C845",
"`  c #CEC85C",
"'  c #F6ED47",
"]  c #FCEE44",
"[  c #F4EA48",
"{  c #FFFB41",
"}  c #FFFE40",
"|  c #FFFF41",
" . c #FFFF44",
".. c #FFFF45",
"X. c #FFFE46",
"o. c #FFFF47",
"O. c #FEF049",
"+. c #FFFF48",
"@. c #FFFF4C",
"#. c #FFFF4E",
"$. c #E3E850",
"%. c #E9EB51",
"&. c #EDE950",
"*. c #EDE853",
"=. c #FFF150",
"-. c #FFF156",
";. c #FFFF50",
":. c #FFFF53",
">. c #FFFF57",
",. c #C6C769",
"<. c #D3D476",
"1. c #DBD878",
"2. c #F6F562",
"3. c #FFF668",
"4. c #FFF66E",
"5. c #FFFF77",
"6. c #FFFF7D",
"7. c #84858A",
"8. c #888888",
"9. c #91908B",
"0. c #999B96",
"q. c #99999D",
"w. c #B9BA97",
"e. c gray66",
"r. c #ABABAF",
"t. c #E8DB91",
"y. c #DEE181",
"u. c #FFE78E",
"i. c #FFEC8C",
"p. c #FFEC8F",
"a. c #FFFE80",
"s. c #FFF986",
"d. c #FFFF88",
"f. c #FFFF89",
"g. c #FFED91",
"h. c #F1E698",
"j. c #FFEE9D",
"k. c #FFEE9F",
"l. c #FFF295",
"z. c #FFFC97",
"x. c #FFF29D",
"c. c #FFF69F",
"v. c #FFEFAB",
"b. c #FFFCA5",
"n. c #FFFFA6",
"m. c #FFFFAB",
"M. c #FFF2B2",
"N. c #FFFFB6",
"B. c #F6F4BD",
"V. c #FFF2BA",
"C. c #C2C3C1",
"Z. c #C3C3C3",
"A. c #C8C7C6",
"S. c gray84",
"D. c #DFDFDE",
"F. c #E0E3CB",
"G. c #E6E5CD",
"H. c #FFF7C9",
"J. c #FFF6CF",
"K. c #FFFDCD",
"L. c #F8F5D3",
"P. c #FFF9D0",
"I. c #FFF8D2",
"U. c #FFF8D3",
"Y. c #F9F8D6",
"T. c #FFFFD6",
"R. c #FFFED9",
"E. c #E6E6E6",
"W. c #EBECE7",
"Q. c #E8E9EA",
"!. c #FFFBE7",
"~. c #FFFFEA",
"^. c #FFFCED",
"/. c #FFFFEC",
"(. c #FFFFED",
"). c #EFF0F2",
"_. c #F0F1F0",
"`. c #FFFDF3",
"'. c #FFFFF2",
"]. c #FFFFF3",
"[. c #FFFFFD",
"{. c white",
"}. c None",
/* pixels */
"}.}.}.}.}.v z L L l n }.}.}.}.}.",
"}.}.}.6 / [ o.#.:.@.[ T 5 }.}.}.",
"}.}.B y.6.f.m.h.t.b.5.D $.i }.}.",
"}.M 1.f.T.G.t 9 r 1 w.b.o.&.2 }.",
"}.( 6.K.F.# y D.W.X s ~.u.o.R }.",
", -.a.(.w = {.{.{.A.C.(.M.4.O.0 ",
"^ { z.L.$ Z {.{.{.{.{.!.H.g.o.k ",
"P o.b.Y.= g {.{.{.{.{.`.U.k.#.G ",
"L o.x.`.C   E.{.{.e.r.{.U.x.:.G ",
"z o.i.R._.< : C.S.  s {.J.i.o.j ",
"u =.3.v.{.{.h ; q 8.Q.`.J.s.] > ",
"}.E } l.B.9.7.f r q.).~.V.d.U }.",
"}.2 *.>.) p V O %   o 0.N.` b }.",
"}.}.8 %.} a - . + @ & ,.<.m }.}.",
"}.}.}.4 Q _ S A F Y 2.! c }.}.}.",
"}.}.}.}.}.N I W ~ J 1 }.}.}.}.}."
};
