/* XPM */
static char *_5c0bc3b3a5949eaec74ce44ce6a375e[] = {
/* columns rows colors chars-per-pixel */
"32 32 256 2 ",
"   c #010103",
".  c #01030B",
"X  c #06080D",
"o  c #0D0C0D",
"O  c #0C0E17",
"+  c #0E1014",
"@  c #0E1019",
"#  c #141414",
"$  c #15161A",
"%  c #17181B",
"&  c #1C1C1C",
"*  c #020524",
"=  c #111224",
"-  c #161A3A",
";  c #191D3E",
":  c #1F2127",
">  c #1D213F",
",  c #222222",
"<  c #27272A",
"1  c #2C2C2C",
"2  c #302F2F",
"3  c #202337",
"4  c #2F2F30",
"5  c #2D2C3D",
"6  c #323233",
"7  c #36363A",
"8  c #3E3E3E",
"9  c #403F3C",
"0  c #1B1D42",
"q  c #1F2142",
"w  c #212542",
"e  c #282A4B",
"r  c #313248",
"t  c #37394D",
"y  c #393B45",
"u  c #2D3055",
"i  c #2F3358",
"p  c #32345A",
"a  c #383B5C",
"s  c #343857",
"d  c #373967",
"f  c #383A67",
"g  c #373A68",
"h  c #403F4E",
"j  c #3C405D",
"k  c #3F426B",
"l  c #444446",
"z  c #484741",
"x  c #4A4946",
"c  c #44444A",
"v  c #4A4A4B",
"b  c #56534A",
"n  c #4E4F50",
"m  c #42445D",
"M  c #4E5058",
"N  c #545454",
"B  c #5A5B5A",
"V  c #74754F",
"C  c #7E7348",
"Z  c #676455",
"A  c #64685C",
"S  c #7C775C",
"D  c #414467",
"F  c #42456A",
"G  c #44486B",
"H  c #484D6F",
"J  c #444775",
"K  c #474A70",
"L  c #494F71",
"P  c #4B4E7C",
"I  c #4D5374",
"U  c #656463",
"Y  c #6C6B61",
"T  c #6C6C6C",
"R  c #72716B",
"E  c #77796C",
"W  c #797978",
"Q  c #797875",
"!  c #C8B13A",
"~  c #E7D233",
"^  c #EBDF3E",
"/  c #F0D839",
"(  c #FFED2B",
")  c #FFF924",
"_  c #FFF32C",
"`  c #FFFC2C",
"'  c #F3ED33",
"]  c #FFED3D",
"[  c #F7E63A",
"{  c #FFF134",
"}  c #FFFA34",
"|  c #FFF33D",
" . c #FFFC3C",
".. c #83825A",
"X. c #9A975A",
"o. c #9C985A",
"O. c #B4A84F",
"+. c #B4A545",
"@. c #888967",
"#. c #8D8B6C",
"$. c #9A9861",
"%. c #9B9A68",
"&. c #8E8F70",
"*. c #80817D",
"=. c #959077",
"-. c #9D9F77",
";. c #9F9F78",
":. c #A29C7F",
">. c #9FA07E",
",. c #AFA863",
"<. c #BEB76C",
"1. c #BEB86D",
"2. c #A2A17F",
"3. c #BCB771",
"4. c #BCB870",
"5. c #C3B654",
"6. c #D5C94F",
"7. c #DCCF4C",
"8. c #DCD04B",
"9. c #CEC351",
"0. c #CDCD5D",
"q. c #D9CE54",
"w. c #D6CE5D",
"e. c #DBCD5D",
"r. c #DCD150",
"t. c #D6D05F",
"y. c #D3D054",
"u. c #E9DF4D",
"i. c #E9DB51",
"p. c #EFD558",
"a. c #E2D654",
"s. c #F5E140",
"d. c #FDEE44",
"f. c #F5E54D",
"g. c #FFED4B",
"h. c #FFF244",
"j. c #FFF34D",
"k. c #FFFD4A",
"l. c #FFE655",
"z. c #FFE952",
"x. c #FFE65B",
"c. c #FFFF57",
"v. c #FFFF5A",
"b. c #CFCD62",
"n. c #CECD6C",
"m. c #D6C763",
"M. c #D4CC60",
"N. c #D1C06B",
"B. c #D4CD6D",
"V. c #CFC27D",
"C. c #DDDA70",
"Z. c #E1D96B",
"A. c #FFE464",
"S. c #FFE66A",
"D. c #FFE86E",
"F. c #FFF166",
"G. c #FFFB65",
"H. c #FFFF6E",
"J. c #FFE774",
"K. c #FFE976",
"L. c #FFE77A",
"P. c #FFEB7C",
"I. c #FFFF73",
"U. c #F7F479",
"Y. c #FEF37B",
"T. c #FFF979",
"R. c #525680",
"E. c #6B6E86",
"W. c #6F7281",
"Q. c #707283",
"!. c #797981",
"~. c #75788D",
"^. c #7B7C8B",
"/. c #797C93",
"(. c #838384",
"). c #888785",
"_. c #8D8A84",
"`. c #8A8A89",
"'. c #908F8E",
"]. c #939482",
"[. c #96998A",
"{. c #929292",
"}. c #979892",
"|. c #9D9D9B",
" X c #9E9C95",
".X c #A29F90",
"XX c #A1A181",
"oX c #9FA1A2",
"OX c #A6A6A4",
"+X c #AEAEA4",
"@X c #ABACAA",
"#X c #B2B1B2",
"$X c #B9B9B9",
"%X c #C2BF8C",
"&X c #D8DA8F",
"*X c #D8D38B",
"=X c #DACF92",
"-X c #E8E68B",
";X c #FFEC83",
":X c #FFEC8B",
">X c #FFF385",
",X c #FFFF80",
"<X c #FFF38B",
"1X c #FFFF8F",
"2X c #FFEF96",
"3X c #FFEE9B",
"4X c #FFFA93",
"5X c #FEF19D",
"6X c #FFFF9A",
"7X c #DDDBAA",
"8X c #CAC6B2",
"9X c #CACCB3",
"0X c #D5D0B5",
"qX c #E0E0A0",
"wX c #E4E0AF",
"eX c #FFEFA2",
"rX c #FAEDA9",
"tX c #FFF1A4",
"yX c #FFFDA2",
"uX c #FFF2AB",
"iX c #FFFEAA",
"pX c #EAE1B4",
"aX c #F5EBB3",
"sX c #FFF4B3",
"dX c #FFFFB1",
"fX c #FFF5BD",
"gX c #C7C6C0",
"hX c #C6C7C8",
"jX c #C9C9C9",
"kX c #D0CFC6",
"lX c #DFDBCA",
"zX c #D5D5D3",
"xX c #DCDBD6",
"cX c #ECEAC7",
"vX c #E7E3C8",
"bX c #EAE4C9",
"nX c #F4EECD",
"mX c #FFF5C4",
"MX c #FFFEC4",
"NX c #FEF6CD",
"BX c #FFFFCA",
"VX c #EAE7D1",
"CX c #E9E8D5",
"ZX c #E7E8DE",
"AX c #FCF5D2",
"SX c #FFFAD4",
"DX c #FFFBD9",
"FX c #E4E4E4",
"GX c #ECECEC",
"HX c #F3F2E3",
"JX c #FFFCE4",
"KX c #FFFDEB",
"LX c #F3F3F2",
"PX c #FFFEF4",
"IX c #FFFFFE",
"UX c None",
/* pixels */
"UXUXUXUXUXUXUXUXUXUXUXUXUXG L I I L D UXUXUXUXUXUXUXUXUXUXUXUXUX",
"UXUXUXUXUXUXUXUXUXUXR.^.>.4.m.e.e.m.1.-.!.P UXUXUXUXUXUXUXUXUXUX",
"UXUXUXUXUXUXUXUXF }.n.^ ( _ { { | { _ _ [ b._.P UXUXUXUXUXUXUXUX",
"UXUXUXUXUXUXr /.&Xd._ d.x.A.A.S.A.A.A.x.g.` _ 0.~.p UXUXUXUXUXUX",
"UXUXUXUXUXe @XU.v.Y.L.D.K.;X<X<X4X<X>XP.S.A.z.) ' [.f UXUXUXUXUX",
"UXUXUXUXs +XG.T.3X3X3X5XyXdXdXuXrXuXiXiX6XP.S.A.| ) XXf UXUXUXUX",
"UXUXUXD oXF.T.3XtXsXMXBXpX:.Z z 9 x Y =.%X5X<XK.A.d.) ].u UXUXUX",
"UXUXUXE.T.T.3XtXsXBXNX.X6 . $ 8 x 6 % @ t wXiX:XJ.A.| { Q.UXUXUX",
"UXUXK *XG.3XtXsXBXnXQ + X R kXHXJXVXR X c cXMXrX:XK.A.` q.J UXUX",
"UXUX*.j.Y.5XuXBXSX_.+ + (.IXIXIXIXIX+X  $ CXDXsXeX:XD.l._ &.UXUX",
"UXP B.} L.5XfXDX8X6 o N LXIXIXIXIXIXxXR U HXJXmXsX2XP.A.} q.k UX",
"UX^.[ d.K.3XMXDX_.& & {.IXIXIXIXIXIXIXIXIXPXJXAXfXuX:XJ.g.] R UX",
"UX2.( l.K.3XBXnXU $ 1 #XIXIXIXIXIXIXIXIXIXPXKXDXmXsX2XL.x.} $.UX",
"G 4._ A.P.5XBXvXN & 6 $XIXIXIXIXIXIXIXIXIXPXPXJXSXfXtX;XA.{ 5.p ",
"L m.{ A.;XtXBXbXB & 1 @XIXIXIXIXIXIXIXIXIXIXPXJXSXmXtX:XS. .q.a ",
"I e.| S.:XtXBXAXT % , `.IXIXIXIXIXIXIXIXIXIXPXKXSXmXuX:XD.h.r.j ",
"I e.{ S.:XuXMXJX X& , n LXIXIXIXIXIXLXFXFXIXIXKXSXmXuX:XS.h.r.m ",
"L m.{ A.:XtXfXJXlXx o 1 '.IXIXIXIXIXjX6 2 GXIXKXSXmXtX:XS.| 6.a ",
"D 1._ A.P.5XsXSXPX+X: o 6 @XIXIXIXIX|.  2 GXIXKXDXfXrX;XA. .5.i ",
"UX-._ x.K.2XsXmXJXPXOX<   % Q $XjX#XB o 7 FXIXJXSXfX3XL.x.} X.UX",
"UX!.[ g.D.:XtXfXSXKXIXzXW l < 1 6 & % 1 U GXIXJXSXfX5XJ.z.| Y UX",
"UXP M._ A.L.3XsXmXDXPXIXgXW N x B |.zXGXIXPXJXDXNXfX5XL. .r.p UX",
"UXUX]._ z.D.:XtXsXSX0XU T T B N v B `.zXIXPXSXAXmXsX5X;Xk...UXUX",
"UXUXP w.` x.K.:XiXaXb 7 hX(.T R U n 7 l (.ZXKXmXsXuX3XI.Z.u UXUX",
"UXUXUX~.' | A.J.6X=X, T '.+ , & & , 1 8 1 c 9XMXtX3X>XI.n UXUXUX",
"UXUXUXp [.) d.A.T.V.& W OX  # # # # o X o   = 7XiX:XI.@.a UXUXUX",
"UXUXUXUXg XX) | F.N.: M ).# % & & & & & #   > qX4XH.%.0 UXUXUXUX",
"UXUXUXUXUXg ].' ` p.b - y , & & & % @ * ; A -X,XI.@.e UXUXUXUXUX",
"UXUXUXUXUXUXp Q.y.` / C 5 w w > ; 5 h S t.c.c.C.v a UXUXUXUXUXUX",
"UXUXUXUXUXUXUXUXJ &.a.h.~ ! +.O.5.8.k. . .r.V q UXUXUXUXUXUXUXUX",
"UXUXUXUXUXUXUXUXUXUXF E ,.e.i.f.f.u.9.X.Y p UXUXUXUXUXUXUXUXUXUX",
"UXUXUXUXUXUXUXUXUXUXUXUXUXs j m m a p UXUXUXUXUXUXUXUXUXUXUXUXUX"
};
